<?xml version="1.0" encoding="iso-8859-1"?>
<!-- Generator: Adobe Illustrator 19.0.0, SVG Export Plug-In . SVG Version: 6.00 Build 0)  -->
<svg version="1.1" id="Layer_1" xmlns="http://www.w3.org/2000/svg" xmlns:xlink="http://www.w3.org/1999/xlink" x="0px" y="0px"
	 viewBox="0 0 512 512" style="enable-background:new 0 0 512 512;" xml:space="preserve">
<circle style="fill:#71B84F;" cx="255.89" cy="256" r="255.89"/>
<path style="fill:#FFD630;" d="M11.833,179.295c72.479-14.369,159.326,1.268,248.076,93.61
	c69.309-95.511,155.1-127.419,222.508-136.083c5.917,11.199,10.988,23.033,15.214,35.077c-20.497,2.113-43.318,6.339-66.985,14.58
	l79.241,37.19C511.155,234.235,512,245.012,512,256c0,2.958,0,5.917-0.211,8.664l-123.827-58.321l0.634-1.268
	c-48.178,26.414-96.779,72.056-135.449,148.972c-32.33,64.449-65.083,108.401-96.145,137.773
	c-11.833-5.071-23.244-10.777-34.232-17.539c30.217-25.991,63.604-68.464,97.836-136.716c5.917-12.045,12.256-23.244,18.806-34.021
	c-85.368-91.919-169.258-101.85-236.665-83.889c1.902-13.946,5.071-27.681,9.298-40.783L11.833,179.295z"/>
<path style="fill:#006775;" d="M259.487,281.78h2.747c0.845-3.804,4.649-10.354,6.551-13.946l20.92-42.896
	c9.509-19.229,18.595-38.035,28.104-57.053c10.988-21.976,12.89-43.318,0-65.717c-10.143-17.75-31.485-32.33-52.827-32.33
	c-15.848,0-26.836,1.479-39.726,10.143c-8.875,5.917-15.214,12.256-20.92,21.765c-13.524,22.187-11.622,43.952-0.423,66.351
	c1.69,3.17,54.518,109.458,55.574,113.895L259.487,281.78L259.487,281.78z"/>
<path style="fill:#004F59;" d="M260.121,281.78h2.113c0.845-3.804,4.649-10.354,6.551-13.946l20.92-42.896
	c9.509-19.229,18.595-38.035,28.104-57.053c10.988-21.976,12.89-43.318,0-65.717c-10.143-17.75-31.485-32.33-52.827-32.33
	c-1.69,0-3.17,0-4.86,0C260.121,151.191,260.121,141.894,260.121,281.78z"/>
<circle style="fill:#E6E6E6;" cx="260.75" cy="131.54" r="39.3"/>
<path style="fill:#CCCCCC;" d="M260.121,92.236v78.818h0.634c21.765,0,39.303-17.539,39.303-39.303
	c0-21.764-17.539-39.303-39.303-39.303h-0.634V92.236z"/>
<path style="fill:#FF873D;" d="M260.754,117.17c8.03,0,14.369,6.339,14.369,14.369c0,8.03-6.339,14.369-14.369,14.369
	c-7.818,0-14.369-6.339-14.369-14.369S252.725,117.17,260.754,117.17z"/>
<path style="fill:#E37936;" d="M260.121,117.17v28.738h0.634c8.03,0,14.369-6.339,14.369-14.369s-6.339-14.369-14.369-14.369
	H260.121z"/>
<g>
</g>
<g>
</g>
<g>
</g>
<g>
</g>
<g>
</g>
<g>
</g>
<g>
</g>
<g>
</g>
<g>
</g>
<g>
</g>
<g>
</g>
<g>
</g>
<g>
</g>
<g>
</g>
<g>
</g>
</svg>
