<?xml version="1.0" encoding="iso-8859-1"?>
<!-- Generator: Adobe Illustrator 19.0.0, SVG Export Plug-In . SVG Version: 6.00 Build 0)  -->
<svg version="1.1" id="Layer_1" xmlns="http://www.w3.org/2000/svg" xmlns:xlink="http://www.w3.org/1999/xlink" x="0px" y="0px"
	 viewBox="0 0 390.302 390.302" style="enable-background:new 0 0 390.302 390.302;" xml:space="preserve">
<path style="fill:#FFC10D;" d="M368.076,313.373c0.517-1.099,0.517-1.616,0-2.715l-76.412-75.895
	c-0.517-0.517-1.616-1.099-2.715,0.517l-36.331,36.331c-9.762,9.244-24.372,9.762-33.616,0.517L118.799,171.344
	c-9.244-9.244-9.244-24.372,0.517-33.616l36.331-36.331c0.517-1.099,1.099-2.198,0.517-2.715L79.235,22.27
	c-0.517-0.517-1.099-0.517-2.715,0C36.439,50.455,21.765,69.979,21.765,75.926c-0.517,46.61,39.046,116.493,103.499,182.109
	c66.133,67.232,140.929,110.545,189.156,110.545C320.431,368.645,339.89,353.453,368.076,313.373z"/>
<g>
	<path style="fill:#194F82;" d="M383.268,295.466l-76.412-76.412c-8.663-9.244-24.954-9.244-33.616,0.517l-36.331,36.331
		c-1.616,1.616-2.198,1.099-2.715,0.517L133.991,156.152c-0.517-0.517-0.517-2.198,0.517-2.715l36.331-36.848
		c9.244-9.244,9.762-23.855,0.517-33.616L94.944,6.625C86.799-1.52,73.805-2.037,64.625,4.427
		c-42.861,29.802-64,54.174-64.517,70.982c-1.099,62.319,55.855,143.063,109.446,197.818
		c55.855,56.372,140.347,117.075,205.382,117.075c17.325-0.517,41.18-21.657,70.982-64.517
		C392.512,316.605,391.413,303.611,383.268,295.466z M125.328,258.035C60.811,192.484,21.248,122.601,21.765,75.991
		c0-5.947,14.61-25.471,55.273-53.657c1.616-0.517,2.198-0.517,2.715,0l76.412,76.412c0.517,1.099,0.517,1.616-0.517,2.715
		l-36.331,36.331c-9.244,9.244-9.244,24.372-0.517,33.616l100.267,100.267c9.244,9.244,23.855,8.663,33.616-0.517l36.331-36.331
		c1.616-1.616,2.198-1.099,2.715-0.517l76.412,76.412c0.517,0.517,0.517,1.616,0,2.715c-28.186,40.081-47.709,54.756-53.657,55.273
		C266.193,368.645,191.397,325.268,125.328,258.035z"/>
	<path style="fill:#194F82;" d="M253.716,76.508c-29.285,14.61-29.802,43.895-29.802,44.994c0,4.848,3.814,8.145,8.145,8.145h41.762
		c4.848,0,8.145-3.814,8.145-8.145c0-4.848-3.814-8.145-8.145-8.145h-32c2.198-7.046,7.046-15.709,18.941-21.657
		c19.523-9.762,21.139-25.988,21.139-31.418c0-15.709-13.576-28.703-29.285-28.703c-16.291,0-29.285,12.994-29.285,29.285
		c0,4.848,3.814,8.145,8.145,8.145c4.848,0,8.145-3.814,8.145-8.145c0-7.046,5.43-12.477,12.477-12.477s12.477,5.43,12.477,12.477
		C265.676,62.415,264.577,71.078,253.716,76.508z"/>
	<path style="fill:#194F82;" d="M302.007,109.025h28.703v12.477c0,4.331,3.814,8.145,8.145,8.145c4.848,0,8.145-3.814,8.145-8.145
		v-12.477h4.331c4.331,0,8.145-3.814,8.145-8.145c0-4.331-3.814-8.145-8.145-8.145h-4.331V39.078c0-4.331-3.814-8.145-8.145-8.145
		h-4.331c-2.715,0-5.947,1.616-7.046,4.331l-33.034,61.802C292.245,101.979,294.961,109.542,302.007,109.025z M330.71,64.613v28.186
		h-15.192L330.71,64.613z"/>
	<path style="fill:#194F82;" d="M278.153,196.815c2.198,0,3.814-1.616,3.814-3.814v-12.994c-0.517-8.663-6.529-13.576-14.61-13.576
		h-4.331v-11.313c0-2.198-1.616-3.814-3.814-3.814s-3.814,1.616-3.814,3.814v37.947c0,2.198,1.616,3.814,3.814,3.814
		s3.814-1.616,3.814-3.814v-18.941h4.331c4.849,0,6.529,2.198,7.046,5.947v12.994C274.338,195.199,275.955,196.815,278.153,196.815z
		"/>
	<path style="fill:#194F82;" d="M290.629,196.815c2.198,0,3.814-1.616,3.814-3.814v-17.325v-0.517
		c0.517-1.099,2.198-1.099,3.232-1.099c2.198,0,3.814-1.616,3.814-3.814c0-2.198-1.616-3.814-3.814-3.814s-3.814,0.517-4.848,1.099
		c-0.517-0.517-1.616-1.099-2.715-1.099c-2.198,0-3.814,1.616-3.814,3.814v22.756C286.815,195.199,288.949,196.815,290.629,196.815z
		"/>
	<path style="fill:#194F82;" d="M316.617,189.251c-1.099,0-2.715-0.517-3.814-1.616c-1.099-1.616-2.715-2.715-5.43-1.616
		c-1.616,1.099-2.198,2.715-1.616,5.43c2.198,3.232,5.947,5.43,10.279,5.43c7.046,0,11.895-4.848,11.895-10.861
		c0-3.814-2.198-6.529-6.529-8.663c-2.198-1.099-4.331-1.616-4.848-1.616c-2.715-1.099-2.715-1.616-2.715-2.198
		c0,0,1.099-1.099,3.232-1.099c1.616,0,2.715,1.616,4.331,1.099c1.099,0,2.715-0.517,3.232-1.616
		c1.099-2.198,0.517-3.814-1.099-5.43c-1.616-1.099-3.814-1.616-5.947-1.616c-6.529,0-10.861,3.814-10.861,8.663
		c0,5.947,4.849,8.145,8.663,9.244c2.198,0.517,5.43,2.198,5.43,2.715C320.949,188.152,319.332,189.251,316.617,189.251z"/>
</g>
<g>
</g>
<g>
</g>
<g>
</g>
<g>
</g>
<g>
</g>
<g>
</g>
<g>
</g>
<g>
</g>
<g>
</g>
<g>
</g>
<g>
</g>
<g>
</g>
<g>
</g>
<g>
</g>
<g>
</g>
</svg>
