<?xml version="1.0" encoding="utf-8"?>
<!-- Generator: Adobe Illustrator 24.2.3, SVG Export Plug-In . SVG Version: 6.00 Build 0)  -->
<svg version="1.1" id="Layer_1" xmlns="http://www.w3.org/2000/svg" xmlns:xlink="http://www.w3.org/1999/xlink" x="0px" y="0px"
	 viewBox="0 0 122.9 121.1" style="enable-background:new 0 0 122.9 121.1;" xml:space="preserve">
<style type="text/css">
	.st0{fill-rule:evenodd;clip-rule:evenodd;}
</style>
<path class="st0" d="M68.1,102.9H0.9C0.8,69.6,30.9,86.7,40,66.6c0.1-0.1,0.1-0.3,0.2-0.4c-3-2.7-5.4-5.4-5.9-11H34
	c-0.8,0-1.5-0.2-2.1-0.6h-0.1c-1.5-1-2.5-2.6-2.8-4.4c-0.5-2.2-0.6-4.6-0.3-6.8l0.1-0.4c0.3-1.2,1.1-2.2,2.2-2.6
	c-0.4-7.2,0.8-18.5-6.5-20.7C39,1.8,55.8-7.9,68.3,8.1c14.5,0.8,20.8,23.4,9.8,33.5c0.8-0.1,1.6,0.1,2.3,0.5c0.8,0.4,1.4,1.2,1.7,2
	c0.3,1.2,0.3,2.4-0.1,3.5l-1.8,5.3c-0.2,0.7-0.6,1.4-1.2,1.9c-0.7,0.5-1.6,0.7-2.5,0.6L76,55.2c-0.1,4.9-2,7.7-4.8,10.5l0.1,0.2
	c0.6,1.8,1.5,3.4,2.8,4.7l-0.4,0.4c-0.6,0.6-1.2,1.2-1.7,1.8c-1.3-1.4-2.5-3-3.3-4.8L68,68.8c-3.8,3.6-8,5.4-12.2,5.4
	c-4.2,0-8.7-1.8-12.7-5.4l-0.3-0.3c-1.2,2.5-2.8,4.8-4.7,6.8c5.7,8.3,19.5,10.2,29.1,5.7C64.6,88.1,64.9,96,68.1,102.9L68.1,102.9z
	 M66.4,21.5c-5.1,5.1-10.9,5.2-16.1,5.5c-2.9,0.5-5.7,1.7-8.1,3.4c-1.9,1.2-3.3,3-4.1,5.1c-0.7,2.3-0.8,4.8-0.2,7.1
	c0.1,0.3,0,0.5-0.1,0.8c-0.3,0.7-1.1,1.1-1.8,0.8l-1.3-0.5c-1.7-0.6-2.9-0.9-3.3,0.2c-0.2,1.9-0.1,3.8,0.3,5.7c0.2,1,0.7,2,1.5,2.7
	l0,0c0.3,0.1,0.5,0.2,0.8,0.2c0.4,0,0.8-0.1,1.2-0.2l0.4-0.1c0.8,0,1.4,0.5,1.4,1.3c0,0,0,0,0,0.1c0.2,6.4,3,8.8,6.4,11.8l1.5,1.3
	c3.5,3.1,7.2,4.7,10.9,4.8c3.6,0,7.1-1.5,10.3-4.6l1.1-1.1c3.8-3.6,6.5-6.2,5.9-12.5c0-0.3,0.1-0.6,0.2-0.9c0.4-0.6,1.2-0.8,1.8-0.4
	c0.4,0.3,0.9,0.5,1.4,0.5h0.7l2.1-5.7c0.3-0.6,0.3-1.3,0.2-2c0-0.2-0.2-0.3-0.3-0.4c-0.3-0.1-0.6-0.2-0.9-0.1
	c-0.9,0.1-1.8,0.4-2.6,1c-0.3,0.2-0.7,0.3-1.1,0.3c-0.7-0.1-1.2-0.8-1.1-1.6c1.3-7.8,0.7-12.9-0.9-16.3C71.3,25,69.1,22.8,66.4,21.5
	L66.4,21.5z"/>
<g>
	<g id="svg_2_1_">
		<path id="svg_3_1_" d="M4.4,120.1h113.7c1.9,0,3.4-1.5,3.4-3.4v-2.8c0-1.9-1.5-3.4-3.4-3.4H4.4c-1.9,0-3.4,1.5-3.4,3.4v2.8
			C1,118.5,2.5,120.1,4.4,120.1z"/>
	</g>
</g>
<g>
	<path id="svg_1_1_" class="st0" d="M109.5,42.2l11.1,8.9c1.5,1.2,1.7,3.3,0.5,4.8l-4.9,6.1L99.8,48.8l4.9-6.1
		C105.9,41.3,108,41,109.5,42.2C109.5,42.2,109.5,42.2,109.5,42.2z M89.6,94.9L78,99.9c-8.4,3.1-8.1,4.9-7.2-3.5l2.6-14.6l0,0l0,0
		l24-29.8l16.2,13.1L89.6,94.9C89.6,94.9,89.6,94.9,89.6,94.9z M76.1,84l10.7,8.7l-7.6,3.2c-5.9,2.6-5.8,3.8-4.7-2.3
		C74.4,93.6,76.1,84,76.1,84z"/>
</g>
</svg>
