<svg width="122.9" height="112" xmlns="http://www.w3.org/2000/svg" xml:space="preserve" version="1.1">

 <g>
  <title>Layer 1</title>
  <path id="svg_1" clip-rule="evenodd" fill-rule="evenodd" d="m103.7,17l17.3,14c2.3,1.8 2.6,5.2 0.8,7.5l-7.7,9.5l-25.6,-20.7l7.7,-9.6c1.9,-2.2 5.2,-2.6 7.5,-0.7l0,0zm-31.2,82.5l-18.1,7.7c-13.2,4.9 -12.6,7.7 -11.3,-5.4l4,-22.9l0,0l0,0l37.5,-46.6l25.4,20.5l-37.5,46.7l0,0zm-21.1,-17.1l16.8,13.6l-11.9,5c-9.3,4 -9.1,6 -7.4,-3.6c-0.1,0 2.5,-15 2.5,-15z" class="st0"/>
  <g id="svg_2">
   <path id="svg_3" d="m5.7,16.1l81.4,0c3.1,0 5.7,-2.5 5.7,-5.7l0,-4.7c0,-3.1 -2.5,-5.7 -5.7,-5.7l-81.4,0c-3.2,0 -5.7,2.5 -5.7,5.7l0,4.7c0,3.1 2.5,5.7 5.7,5.7z"/>
   <path id="svg_4" d="m67.2,31.7l-61.5,0c-3.1,0 -5.7,2.5 -5.7,5.7l0,4.7c0,3.1 2.5,5.7 5.7,5.7l46.6,0c5.4,-6.8 10.7,-12.2 14.9,-16.1z"/>
   <path id="svg_5" d="m5.7,63.5c-3.2,0 -5.7,2.5 -5.7,5.7l0,4.7c0,3.1 2.5,5.7 5.7,5.7l28.3,0c2.3,-5.8 4.9,-11.1 7.7,-16.1l-36,0z"/>
   <path id="svg_6" d="m5.7,95.2c-3.1,0 -5.7,2.5 -5.7,5.7l0,4.7c0,3.1 2.5,5.7 5.7,5.7l21.1,0c0.4,-5.6 1.3,-11 2.4,-16.1l-23.5,0z"/>
  </g>
 </g>
</svg>